<mxfile host="app.diagrams.net">
  <diagram name="CI/CD Pipeline" id="pipeline">
    <mxGraphModel dx="1280" dy="720" grid="1" gridSize="10" guides="1" tooltips="1" connect="1" arrows="1" fold="1" page="1" pageScale="1" pageWidth="1600" pageHeight="900" math="0" shadow="0">
      <root>
        <mxCell id="0"/>
        <mxCell id="1" parent="0"/>

        <!-- Developer -->
        <mxCell id="dev" value="Developer" style="shape=actor;fillColor=#dae8fc;strokeColor=#6c8ebf;" vertex="1" parent="1">
          <mxGeometry x="20" y="200" width="60" height="80" as="geometry"/>
        </mxCell>

        <!-- GitHub -->
        <mxCell id="github" value="GitHub" style="shape=ellipse;fillColor=#fff2cc;strokeColor=#d6b656;" vertex="1" parent="1">
          <mxGeometry x="120" y="220" width="100" height="60" as="geometry"/>
        </mxCell>

        <!-- GitHub Actions -->
        <mxCell id="actions" value="GitHub Actions CI/CD" style="shape=process;fillColor=#f8cecc;strokeColor=#b85450;" vertex="1" parent="1">
          <mxGeometry x="260" y="220" width="160" height="60" as="geometry"/>
        </mxCell>

        <!-- Docker Hub -->
        <mxCell id="docker" value="Docker Hub" style="shape=cylinder;fillColor=#d5e8d4;strokeColor=#82b366;" vertex="1" parent="1">
          <mxGeometry x="460" y="100" width="100" height="60" as="geometry"/>
        </mxCell>

        <!-- Terraform -->
        <mxCell id="terraform" value="Terraform" style="shape=hexagon;fillColor=#e1d5e7;strokeColor=#9673a6;" vertex="1" parent="1">
          <mxGeometry x="460" y="220" width="100" height="60" as="geometry"/>
        </mxCell>

        <!-- AWS Cloud -->
        <mxCell id="aws" value="AWS Cloud (EKS Cluster)" style="shape=cloud;fillColor=#fff2cc;strokeColor=#d6b656;" vertex="1" parent="1">
          <mxGeometry x="620" y="180" width="180" height="100" as="geometry"/>
        </mxCell>

        <!-- Kubernetes -->
        <mxCell id="k8s" value="Kubernetes (Pods + Service)" style="shape=process;fillColor=#dae8fc;strokeColor=#6c8ebf;" vertex="1" parent="1">
          <mxGeometry x="860" y="200" width="200" height="60" as="geometry"/>
        </mxCell>

        <!-- End User -->
        <mxCell id="user" value="End User" style="shape=actor;fillColor=#d5e8d4;strokeColor=#82b366;" vertex="1" parent="1">
          <mxGeometry x="1100" y="200" width="60" height="80" as="geometry"/>
        </mxCell>

        <!-- Connectors -->
        <mxCell id="c1" edge="1" parent="1" source="dev" target="github">
          <mxGeometry relative="1" as="geometry"/>
        </mxCell>
        <mxCell id="c2" edge="1" parent="1" source="github" target="actions">
          <mxGeometry relative="1" as="geometry"/>
        </mxCell>
        <mxCell id="c3" edge="1" parent="1" source="actions" target="docker">
          <mxGeometry relative="1" as="geometry"/>
        </mxCell>
        <mxCell id="c4" edge="1" parent="1" source="actions" target="terraform">
          <mxGeometry relative="1" as="geometry"/>
        </mxCell>
        <mxCell id="c5" edge="1" parent="1" source="terraform" target="aws">
          <mxGeometry relative="1" as="geometry"/>
        </mxCell>
        <mxCell id="c6" edge="1" parent="1" source="docker" target="k8s">
          <mxGeometry relative="1" as="geometry"/>
        </mxCell>
        <mxCell id="c7" edge="1" parent="1" source="aws" target="k8s">
          <mxGeometry relative="1" as="geometry"/>
        </mxCell>
        <mxCell id="c8" edge="1" parent="1" source="k8s" target="user">
          <mxGeometry relative="1" as="geometry"/>
        </mxCell>

      </root>
    </mxGraphModel>
  </diagram>
</mxfile>
